<?xml version="1.0" encoding="utf-8"?>
<!-- Generator: Adobe Illustrator 27.5.0, SVG Export Plug-In . SVG Version: 6.00 Build 0)  -->
<svg version="1.1" id="Layer_1" xmlns="http://www.w3.org/2000/svg" xmlns:xlink="http://www.w3.org/1999/xlink" x="0px" y="0px"
	 viewBox="0 0 400 400" style="enable-background:new 0 0 400 400;" xml:space="preserve">
<g>
	<defs>
		<rect id="SVGID_1_" y="0" width="400" height="400"/>
	</defs>
	<use xlink:href="#SVGID_1_"  style="overflow:visible;fill:#F9C7DF;"/>
	<clipPath id="SVGID_00000167366757860706330530000010663314926703859598_">
		<use xlink:href="#SVGID_1_"  style="overflow:visible;"/>
	</clipPath>
	
		<g id="itm0nm50_00000006683509274593062120000010153860346734774179_" style="clip-path:url(#SVGID_00000167366757860706330530000010663314926703859598_);">
		<g>
			<path style="fill:#00B6D2;" d="M222.168,373.738h-80.93c-3.112,0-5.642,2.533-5.642,5.649v80.919c0,3.118,2.53,5.649,5.642,5.649
				h80.93c3.112,0,5.642-2.531,5.642-5.649v-80.919C227.81,376.271,225.28,373.738,222.168,373.738z M212.152,446.722
				c0,2.057-1.667,3.731-3.731,3.731h-53.435c-2.061,0-3.731-1.674-3.731-3.731v-53.436c0-2.059,1.671-3.727,3.731-3.727h53.435
				c2.064,0,3.731,1.668,3.731,3.727V446.722z"/>
			<path style="fill:#0095D9;" d="M222.168,467.931h-80.93c-4.198,0-7.614-3.42-7.614-7.624v-80.919
				c0-4.205,3.416-7.625,7.614-7.625h80.93c4.198,0,7.618,3.42,7.618,7.625v80.919C229.786,464.511,226.366,467.931,222.168,467.931
				z M141.238,375.717c-2.019,0-3.667,1.647-3.667,3.671v80.919c0,2.027,1.647,3.674,3.667,3.674h80.93
				c2.022,0,3.666-1.647,3.666-3.674v-80.919c0-2.023-1.644-3.671-3.666-3.671H141.238z M208.421,452.428h-53.435
				c-3.146,0-5.707-2.557-5.707-5.706v-53.436c0-3.145,2.561-5.703,5.707-5.703h53.435c3.146,0,5.707,2.558,5.707,5.703v53.436
				C214.128,449.871,211.567,452.428,208.421,452.428z M154.986,391.534c-0.965,0-1.753,0.786-1.753,1.752v53.436
				c0,0.967,0.788,1.755,1.753,1.755h53.435c0.968,0,1.753-0.788,1.753-1.755v-53.436c0-0.966-0.785-1.752-1.753-1.752H154.986z"/>
		</g>
		<g>
			<path style="fill:#B563A6;" d="M316.022,373.738H235.1c-3.119,0-5.646,2.533-5.646,5.649v80.919c0,3.118,2.527,5.649,5.646,5.649
				h80.923c3.119,0,5.645-2.531,5.645-5.649v-80.919C321.668,376.271,319.141,373.738,316.022,373.738z M306.006,446.722
				c0,2.057-1.668,3.731-3.727,3.731h-53.435c-2.06,0-3.727-1.674-3.727-3.731v-53.436c0-2.059,1.667-3.727,3.727-3.727h53.435
				c2.06,0,3.727,1.668,3.727,3.727V446.722z"/>
			<path style="fill:#713894;" d="M316.022,467.931H235.1c-4.205,0-7.621-3.42-7.621-7.624v-80.919c0-4.205,3.416-7.625,7.621-7.625
				h80.923c4.201,0,7.624,3.42,7.624,7.625v80.919C323.647,464.511,320.224,467.931,316.022,467.931z M235.1,375.717
				c-2.019,0-3.67,1.647-3.67,3.671v80.919c0,2.027,1.651,3.674,3.67,3.674h80.923c2.022,0,3.67-1.647,3.67-3.674v-80.919
				c0-2.023-1.647-3.671-3.67-3.671H235.1z M302.279,452.428h-53.435c-3.146,0-5.704-2.557-5.704-5.706v-53.436
				c0-3.145,2.557-5.703,5.704-5.703h53.435c3.146,0,5.707,2.558,5.707,5.703v53.436
				C307.986,449.871,305.424,452.428,302.279,452.428z M248.843,391.534c-0.967,0-1.752,0.786-1.752,1.752v53.436
				c0,0.967,0.784,1.755,1.752,1.755h53.435c0.971,0,1.752-0.788,1.752-1.755v-53.436c0-0.966-0.781-1.752-1.752-1.752H248.843z"/>
		</g>
		<g>
			<path style="fill:#00A35A;" d="M222.168,279.883h-80.93c-3.112,0-5.642,2.527-5.642,5.643v80.922c0,3.119,2.53,5.646,5.642,5.646
				h80.93c3.112,0,5.642-2.527,5.642-5.646v-80.922C227.81,282.41,225.28,279.883,222.168,279.883z M212.152,352.863
				c0,2.06-1.667,3.728-3.731,3.728h-53.435c-2.061,0-3.731-1.668-3.731-3.728v-53.435c0-2.057,1.671-3.728,3.731-3.728h53.435
				c2.064,0,3.731,1.671,3.731,3.728V352.863z"/>
			<path style="fill:#007648;" d="M222.168,374.069h-80.93c-4.198,0-7.614-3.42-7.614-7.621v-80.922
				c0-4.201,3.416-7.618,7.614-7.618h80.93c4.198,0,7.618,3.417,7.618,7.618v80.922
				C229.786,370.649,226.366,374.069,222.168,374.069z M141.238,281.859c-2.019,0-3.667,1.644-3.667,3.667v80.922
				c0,2.023,1.647,3.67,3.667,3.67h80.93c2.022,0,3.666-1.646,3.666-3.67v-80.922c0-2.023-1.644-3.667-3.666-3.667H141.238z
				 M208.421,358.568h-53.435c-3.146,0-5.707-2.558-5.707-5.704v-53.435c0-3.146,2.561-5.703,5.707-5.703h53.435
				c3.146,0,5.707,2.557,5.707,5.703v53.435C214.128,356.01,211.567,358.568,208.421,358.568z M154.986,297.677
				c-0.965,0-1.753,0.781-1.753,1.752v53.435c0,0.968,0.788,1.752,1.753,1.752h53.435c0.968,0,1.753-0.784,1.753-1.752v-53.435
				c0-0.971-0.785-1.752-1.753-1.752H154.986z"/>
		</g>
		<g>
			<path style="fill:#ED3B59;" d="M316.022,279.883H235.1c-3.119,0-5.646,2.527-5.646,5.643v80.922c0,3.119,2.527,5.646,5.646,5.646
				h80.923c3.119,0,5.645-2.527,5.645-5.646v-80.922C321.668,282.41,319.141,279.883,316.022,279.883z M306.006,352.863
				c0,2.06-1.668,3.728-3.727,3.728h-53.435c-2.06,0-3.727-1.668-3.727-3.728v-53.435c0-2.057,1.667-3.728,3.727-3.728h53.435
				c2.06,0,3.727,1.671,3.727,3.728V352.863z"/>
			<path style="fill:#B02624;" d="M316.022,374.069H235.1c-4.205,0-7.621-3.42-7.621-7.621v-80.922c0-4.201,3.416-7.618,7.621-7.618
				h80.923c4.201,0,7.624,3.417,7.624,7.618v80.922C323.647,370.649,320.224,374.069,316.022,374.069z M235.1,281.859
				c-2.019,0-3.67,1.644-3.67,3.667v80.922c0,2.023,1.651,3.67,3.67,3.67h80.923c2.022,0,3.67-1.646,3.67-3.67v-80.922
				c0-2.023-1.647-3.667-3.67-3.667H235.1z M302.279,358.568h-53.435c-3.146,0-5.704-2.558-5.704-5.704v-53.435
				c0-3.146,2.557-5.703,5.704-5.703h53.435c3.146,0,5.707,2.557,5.707,5.703v53.435
				C307.986,356.01,305.424,358.568,302.279,358.568z M248.843,297.677c-0.967,0-1.752,0.781-1.752,1.752v53.435
				c0,0.968,0.784,1.752,1.752,1.752h53.435c0.971,0,1.752-0.784,1.752-1.752v-53.435c0-0.971-0.781-1.752-1.752-1.752H248.843z"/>
		</g>
	</g>
	
		<g id="itm0nm50_00000132069336955272919150000008337524745008166530_" style="clip-path:url(#SVGID_00000167366757860706330530000010663314926703859598_);">
		<g>
			<path style="fill:#00B6D2;" d="M422.168,173.738h-80.93c-3.112,0-5.642,2.533-5.642,5.649v80.919
				c0,3.118,2.531,5.649,5.642,5.649h80.93c3.112,0,5.642-2.531,5.642-5.649v-80.919C427.81,176.271,425.28,173.738,422.168,173.738
				z M412.152,246.722c0,2.057-1.667,3.731-3.731,3.731h-53.435c-2.061,0-3.731-1.674-3.731-3.731v-53.436
				c0-2.059,1.671-3.727,3.731-3.727h53.435c2.064,0,3.731,1.668,3.731,3.727V246.722z"/>
			<path style="fill:#0095D9;" d="M422.168,267.931h-80.93c-4.198,0-7.614-3.42-7.614-7.624v-80.919
				c0-4.205,3.416-7.625,7.614-7.625h80.93c4.198,0,7.618,3.42,7.618,7.625v80.919C429.786,264.511,426.366,267.931,422.168,267.931
				z M341.238,175.717c-2.019,0-3.667,1.647-3.667,3.671v80.919c0,2.027,1.647,3.674,3.667,3.674h80.93
				c2.022,0,3.667-1.647,3.667-3.674v-80.919c0-2.023-1.644-3.671-3.667-3.671H341.238z M408.421,252.428h-53.435
				c-3.146,0-5.707-2.557-5.707-5.706v-53.436c0-3.145,2.561-5.703,5.707-5.703h53.435c3.146,0,5.707,2.558,5.707,5.703v53.436
				C414.128,249.871,411.567,252.428,408.421,252.428z M354.986,191.534c-0.965,0-1.753,0.785-1.753,1.752v53.436
				c0,0.967,0.788,1.755,1.753,1.755h53.435c0.968,0,1.753-0.788,1.753-1.755v-53.436c0-0.967-0.785-1.752-1.753-1.752H354.986z"/>
		</g>
		<g>
			<path style="fill:#B563A6;" d="M516.022,173.738H435.1c-3.119,0-5.646,2.533-5.646,5.649v80.919c0,3.118,2.527,5.649,5.646,5.649
				h80.923c3.119,0,5.645-2.531,5.645-5.649v-80.919C521.668,176.271,519.141,173.738,516.022,173.738z M506.006,246.722
				c0,2.057-1.668,3.731-3.727,3.731h-53.435c-2.06,0-3.728-1.674-3.728-3.731v-53.436c0-2.059,1.667-3.727,3.728-3.727h53.435
				c2.06,0,3.727,1.668,3.727,3.727V246.722z"/>
			<path style="fill:#713894;" d="M516.022,267.931H435.1c-4.205,0-7.621-3.42-7.621-7.624v-80.919c0-4.205,3.416-7.625,7.621-7.625
				h80.923c4.201,0,7.624,3.42,7.624,7.625v80.919C523.647,264.511,520.224,267.931,516.022,267.931z M435.1,175.717
				c-2.019,0-3.67,1.647-3.67,3.671v80.919c0,2.027,1.651,3.674,3.67,3.674h80.923c2.022,0,3.67-1.647,3.67-3.674v-80.919
				c0-2.023-1.648-3.671-3.67-3.671H435.1z M502.279,252.428h-53.435c-3.146,0-5.704-2.557-5.704-5.706v-53.436
				c0-3.145,2.557-5.703,5.704-5.703h53.435c3.146,0,5.707,2.558,5.707,5.703v53.436
				C507.986,249.871,505.424,252.428,502.279,252.428z M448.843,191.534c-0.968,0-1.752,0.785-1.752,1.752v53.436
				c0,0.967,0.784,1.755,1.752,1.755h53.435c0.971,0,1.752-0.788,1.752-1.755v-53.436c0-0.967-0.781-1.752-1.752-1.752H448.843z"/>
		</g>
		<g>
			<path style="fill:#00A35A;" d="M422.168,79.883h-80.93c-3.112,0-5.642,2.527-5.642,5.643v80.922c0,3.119,2.531,5.646,5.642,5.646
				h80.93c3.112,0,5.642-2.527,5.642-5.646V85.526C427.81,82.41,425.28,79.883,422.168,79.883z M412.152,152.863
				c0,2.06-1.667,3.728-3.731,3.728h-53.435c-2.061,0-3.731-1.668-3.731-3.728V99.429c0-2.057,1.671-3.728,3.731-3.728h53.435
				c2.064,0,3.731,1.671,3.731,3.728V152.863z"/>
			<path style="fill:#007648;" d="M422.168,174.069h-80.93c-4.198,0-7.614-3.42-7.614-7.621V85.526c0-4.201,3.416-7.618,7.614-7.618
				h80.93c4.198,0,7.618,3.416,7.618,7.618v80.922C429.786,170.649,426.366,174.069,422.168,174.069z M341.238,81.859
				c-2.019,0-3.667,1.644-3.667,3.667v80.922c0,2.023,1.647,3.67,3.667,3.67h80.93c2.022,0,3.667-1.646,3.667-3.67V85.526
				c0-2.022-1.644-3.667-3.667-3.667H341.238z M408.421,158.568h-53.435c-3.146,0-5.707-2.558-5.707-5.704V99.429
				c0-3.146,2.561-5.703,5.707-5.703h53.435c3.146,0,5.707,2.557,5.707,5.703v53.435
				C414.128,156.01,411.567,158.568,408.421,158.568z M354.986,97.677c-0.965,0-1.753,0.781-1.753,1.752v53.435
				c0,0.968,0.788,1.752,1.753,1.752h53.435c0.968,0,1.753-0.784,1.753-1.752V99.429c0-0.971-0.785-1.752-1.753-1.752H354.986z"/>
		</g>
		<g>
			<path style="fill:#ED3B59;" d="M516.022,79.883H435.1c-3.119,0-5.646,2.527-5.646,5.643v80.922c0,3.119,2.527,5.646,5.646,5.646
				h80.923c3.119,0,5.645-2.527,5.645-5.646V85.526C521.668,82.41,519.141,79.883,516.022,79.883z M506.006,152.863
				c0,2.06-1.668,3.728-3.727,3.728h-53.435c-2.06,0-3.728-1.668-3.728-3.728V99.429c0-2.057,1.667-3.728,3.728-3.728h53.435
				c2.06,0,3.727,1.671,3.727,3.728V152.863z"/>
			<path style="fill:#B02624;" d="M516.022,174.069H435.1c-4.205,0-7.621-3.42-7.621-7.621V85.526c0-4.201,3.416-7.618,7.621-7.618
				h80.923c4.201,0,7.624,3.416,7.624,7.618v80.922C523.647,170.649,520.224,174.069,516.022,174.069z M435.1,81.859
				c-2.019,0-3.67,1.644-3.67,3.667v80.922c0,2.023,1.651,3.67,3.67,3.67h80.923c2.022,0,3.67-1.646,3.67-3.67V85.526
				c0-2.022-1.648-3.667-3.67-3.667H435.1z M502.279,158.568h-53.435c-3.146,0-5.704-2.558-5.704-5.704V99.429
				c0-3.146,2.557-5.703,5.704-5.703h53.435c3.146,0,5.707,2.557,5.707,5.703v53.435
				C507.986,156.01,505.424,158.568,502.279,158.568z M448.843,97.677c-0.968,0-1.752,0.781-1.752,1.752v53.435
				c0,0.968,0.784,1.752,1.752,1.752h53.435c0.971,0,1.752-0.784,1.752-1.752V99.429c0-0.971-0.781-1.752-1.752-1.752H448.843z"/>
		</g>
	</g>
	
		<g id="itm0nm50_00000042728988116884826630000014000310937436333488_" style="clip-path:url(#SVGID_00000167366757860706330530000010663314926703859598_);">
		<g>
			<path style="fill:#00B6D2;" d="M422.168,373.738h-80.93c-3.112,0-5.642,2.533-5.642,5.649v80.919
				c0,3.118,2.531,5.649,5.642,5.649h80.93c3.112,0,5.642-2.531,5.642-5.649v-80.919C427.81,376.271,425.28,373.738,422.168,373.738
				z M412.152,446.722c0,2.057-1.667,3.731-3.731,3.731h-53.435c-2.061,0-3.731-1.674-3.731-3.731v-53.436
				c0-2.059,1.671-3.727,3.731-3.727h53.435c2.064,0,3.731,1.668,3.731,3.727V446.722z"/>
			<path style="fill:#0095D9;" d="M422.168,467.931h-80.93c-4.198,0-7.614-3.42-7.614-7.624v-80.919
				c0-4.205,3.416-7.625,7.614-7.625h80.93c4.198,0,7.618,3.42,7.618,7.625v80.919C429.786,464.511,426.366,467.931,422.168,467.931
				z M341.238,375.717c-2.019,0-3.667,1.647-3.667,3.671v80.919c0,2.027,1.647,3.674,3.667,3.674h80.93
				c2.022,0,3.667-1.647,3.667-3.674v-80.919c0-2.023-1.644-3.671-3.667-3.671H341.238z M408.421,452.428h-53.435
				c-3.146,0-5.707-2.557-5.707-5.706v-53.436c0-3.145,2.561-5.703,5.707-5.703h53.435c3.146,0,5.707,2.558,5.707,5.703v53.436
				C414.128,449.871,411.567,452.428,408.421,452.428z M354.986,391.534c-0.965,0-1.753,0.786-1.753,1.752v53.436
				c0,0.967,0.788,1.755,1.753,1.755h53.435c0.968,0,1.753-0.788,1.753-1.755v-53.436c0-0.966-0.785-1.752-1.753-1.752H354.986z"/>
		</g>
		<g>
			<path style="fill:#B563A6;" d="M516.022,373.738H435.1c-3.119,0-5.646,2.533-5.646,5.649v80.919c0,3.118,2.527,5.649,5.646,5.649
				h80.923c3.119,0,5.645-2.531,5.645-5.649v-80.919C521.668,376.271,519.141,373.738,516.022,373.738z M506.006,446.722
				c0,2.057-1.668,3.731-3.727,3.731h-53.435c-2.06,0-3.728-1.674-3.728-3.731v-53.436c0-2.059,1.667-3.727,3.728-3.727h53.435
				c2.06,0,3.727,1.668,3.727,3.727V446.722z"/>
			<path style="fill:#713894;" d="M516.022,467.931H435.1c-4.205,0-7.621-3.42-7.621-7.624v-80.919c0-4.205,3.416-7.625,7.621-7.625
				h80.923c4.201,0,7.624,3.42,7.624,7.625v80.919C523.647,464.511,520.224,467.931,516.022,467.931z M435.1,375.717
				c-2.019,0-3.67,1.647-3.67,3.671v80.919c0,2.027,1.651,3.674,3.67,3.674h80.923c2.022,0,3.67-1.647,3.67-3.674v-80.919
				c0-2.023-1.648-3.671-3.67-3.671H435.1z M502.279,452.428h-53.435c-3.146,0-5.704-2.557-5.704-5.706v-53.436
				c0-3.145,2.557-5.703,5.704-5.703h53.435c3.146,0,5.707,2.558,5.707,5.703v53.436
				C507.986,449.871,505.424,452.428,502.279,452.428z M448.843,391.534c-0.968,0-1.752,0.786-1.752,1.752v53.436
				c0,0.967,0.784,1.755,1.752,1.755h53.435c0.971,0,1.752-0.788,1.752-1.755v-53.436c0-0.966-0.781-1.752-1.752-1.752H448.843z"/>
		</g>
		<g>
			<path style="fill:#00A35A;" d="M422.168,279.883h-80.93c-3.112,0-5.642,2.527-5.642,5.643v80.922
				c0,3.119,2.531,5.646,5.642,5.646h80.93c3.112,0,5.642-2.527,5.642-5.646v-80.922C427.81,282.41,425.28,279.883,422.168,279.883z
				 M412.152,352.863c0,2.06-1.667,3.728-3.731,3.728h-53.435c-2.061,0-3.731-1.668-3.731-3.728v-53.435
				c0-2.057,1.671-3.728,3.731-3.728h53.435c2.064,0,3.731,1.671,3.731,3.728V352.863z"/>
			<path style="fill:#007648;" d="M422.168,374.069h-80.93c-4.198,0-7.614-3.42-7.614-7.621v-80.922
				c0-4.201,3.416-7.618,7.614-7.618h80.93c4.198,0,7.618,3.417,7.618,7.618v80.922
				C429.786,370.649,426.366,374.069,422.168,374.069z M341.238,281.859c-2.019,0-3.667,1.644-3.667,3.667v80.922
				c0,2.023,1.647,3.67,3.667,3.67h80.93c2.022,0,3.667-1.646,3.667-3.67v-80.922c0-2.023-1.644-3.667-3.667-3.667H341.238z
				 M408.421,358.568h-53.435c-3.146,0-5.707-2.558-5.707-5.704v-53.435c0-3.146,2.561-5.703,5.707-5.703h53.435
				c3.146,0,5.707,2.557,5.707,5.703v53.435C414.128,356.01,411.567,358.568,408.421,358.568z M354.986,297.677
				c-0.965,0-1.753,0.781-1.753,1.752v53.435c0,0.968,0.788,1.752,1.753,1.752h53.435c0.968,0,1.753-0.784,1.753-1.752v-53.435
				c0-0.971-0.785-1.752-1.753-1.752H354.986z"/>
		</g>
		<g>
			<path style="fill:#ED3B59;" d="M516.022,279.883H435.1c-3.119,0-5.646,2.527-5.646,5.643v80.922c0,3.119,2.527,5.646,5.646,5.646
				h80.923c3.119,0,5.645-2.527,5.645-5.646v-80.922C521.668,282.41,519.141,279.883,516.022,279.883z M506.006,352.863
				c0,2.06-1.668,3.728-3.727,3.728h-53.435c-2.06,0-3.728-1.668-3.728-3.728v-53.435c0-2.057,1.667-3.728,3.728-3.728h53.435
				c2.06,0,3.727,1.671,3.727,3.728V352.863z"/>
			<path style="fill:#B02624;" d="M516.022,374.069H435.1c-4.205,0-7.621-3.42-7.621-7.621v-80.922c0-4.201,3.416-7.618,7.621-7.618
				h80.923c4.201,0,7.624,3.417,7.624,7.618v80.922C523.647,370.649,520.224,374.069,516.022,374.069z M435.1,281.859
				c-2.019,0-3.67,1.644-3.67,3.667v80.922c0,2.023,1.651,3.67,3.67,3.67h80.923c2.022,0,3.67-1.646,3.67-3.67v-80.922
				c0-2.023-1.648-3.667-3.67-3.667H435.1z M502.279,358.568h-53.435c-3.146,0-5.704-2.558-5.704-5.704v-53.435
				c0-3.146,2.557-5.703,5.704-5.703h53.435c3.146,0,5.707,2.557,5.707,5.703v53.435
				C507.986,356.01,505.424,358.568,502.279,358.568z M448.843,297.677c-0.968,0-1.752,0.781-1.752,1.752v53.435
				c0,0.968,0.784,1.752,1.752,1.752h53.435c0.971,0,1.752-0.784,1.752-1.752v-53.435c0-0.971-0.781-1.752-1.752-1.752H448.843z"/>
		</g>
	</g>
	
		<g id="itm0nm50_00000163773126016452076160000012735655394821430952_" style="clip-path:url(#SVGID_00000167366757860706330530000010663314926703859598_);">
		<g>
			<path style="fill:#00B6D2;" d="M22.168,373.738h-80.93c-3.112,0-5.642,2.533-5.642,5.649v80.919c0,3.118,2.531,5.649,5.642,5.649
				h80.93c3.112,0,5.642-2.531,5.642-5.649v-80.919C27.81,376.271,25.28,373.738,22.168,373.738z M12.152,446.722
				c0,2.057-1.667,3.731-3.731,3.731h-53.435c-2.061,0-3.731-1.674-3.731-3.731v-53.436c0-2.059,1.671-3.727,3.731-3.727H8.421
				c2.064,0,3.731,1.668,3.731,3.727V446.722z"/>
			<path style="fill:#0095D9;" d="M22.168,467.931h-80.93c-4.198,0-7.614-3.42-7.614-7.624v-80.919c0-4.205,3.416-7.625,7.614-7.625
				h80.93c4.198,0,7.618,3.42,7.618,7.625v80.919C29.786,464.511,26.366,467.931,22.168,467.931z M-58.762,375.717
				c-2.019,0-3.667,1.647-3.667,3.671v80.919c0,2.027,1.647,3.674,3.667,3.674h80.93c2.022,0,3.667-1.647,3.667-3.674v-80.919
				c0-2.023-1.644-3.671-3.667-3.671H-58.762z M8.421,452.428h-53.435c-3.146,0-5.707-2.557-5.707-5.706v-53.436
				c0-3.145,2.561-5.703,5.707-5.703H8.421c3.146,0,5.707,2.558,5.707,5.703v53.436C14.127,449.871,11.567,452.428,8.421,452.428z
				 M-45.014,391.534c-0.965,0-1.753,0.786-1.753,1.752v53.436c0,0.967,0.788,1.755,1.753,1.755H8.421
				c0.968,0,1.753-0.788,1.753-1.755v-53.436c0-0.966-0.785-1.752-1.753-1.752H-45.014z"/>
		</g>
		<g>
			<path style="fill:#B563A6;" d="M116.022,373.738H35.1c-3.119,0-5.646,2.533-5.646,5.649v80.919c0,3.118,2.527,5.649,5.646,5.649
				h80.923c3.119,0,5.645-2.531,5.645-5.649v-80.919C121.668,376.271,119.141,373.738,116.022,373.738z M106.006,446.722
				c0,2.057-1.668,3.731-3.728,3.731H48.843c-2.06,0-3.728-1.674-3.728-3.731v-53.436c0-2.059,1.668-3.727,3.728-3.727h53.435
				c2.06,0,3.728,1.668,3.728,3.727V446.722z"/>
			<path style="fill:#713894;" d="M116.022,467.931H35.1c-4.205,0-7.621-3.42-7.621-7.624v-80.919c0-4.205,3.416-7.625,7.621-7.625
				h80.923c4.201,0,7.624,3.42,7.624,7.625v80.919C123.647,464.511,120.224,467.931,116.022,467.931z M35.1,375.717
				c-2.019,0-3.67,1.647-3.67,3.671v80.919c0,2.027,1.651,3.674,3.67,3.674h80.923c2.022,0,3.67-1.647,3.67-3.674v-80.919
				c0-2.023-1.647-3.671-3.67-3.671H35.1z M102.279,452.428H48.843c-3.146,0-5.703-2.557-5.703-5.706v-53.436
				c0-3.145,2.557-5.703,5.703-5.703h53.435c3.146,0,5.707,2.558,5.707,5.703v53.436
				C107.986,449.871,105.424,452.428,102.279,452.428z M48.843,391.534c-0.967,0-1.752,0.786-1.752,1.752v53.436
				c0,0.967,0.784,1.755,1.752,1.755h53.435c0.971,0,1.752-0.788,1.752-1.755v-53.436c0-0.966-0.781-1.752-1.752-1.752H48.843z"/>
		</g>
		<g>
			<path style="fill:#00A35A;" d="M22.168,279.883h-80.93c-3.112,0-5.642,2.527-5.642,5.643v80.922c0,3.119,2.531,5.646,5.642,5.646
				h80.93c3.112,0,5.642-2.527,5.642-5.646v-80.922C27.81,282.41,25.28,279.883,22.168,279.883z M12.152,352.863
				c0,2.06-1.667,3.728-3.731,3.728h-53.435c-2.061,0-3.731-1.668-3.731-3.728v-53.435c0-2.057,1.671-3.728,3.731-3.728H8.421
				c2.064,0,3.731,1.671,3.731,3.728V352.863z"/>
			<path style="fill:#007648;" d="M22.168,374.069h-80.93c-4.198,0-7.614-3.42-7.614-7.621v-80.922c0-4.201,3.416-7.618,7.614-7.618
				h80.93c4.198,0,7.618,3.417,7.618,7.618v80.922C29.786,370.649,26.366,374.069,22.168,374.069z M-58.762,281.859
				c-2.019,0-3.667,1.644-3.667,3.667v80.922c0,2.023,1.647,3.67,3.667,3.67h80.93c2.022,0,3.667-1.646,3.667-3.67v-80.922
				c0-2.023-1.644-3.667-3.667-3.667H-58.762z M8.421,358.568h-53.435c-3.146,0-5.707-2.558-5.707-5.704v-53.435
				c0-3.146,2.561-5.703,5.707-5.703H8.421c3.146,0,5.707,2.557,5.707,5.703v53.435C14.127,356.01,11.567,358.568,8.421,358.568z
				 M-45.014,297.677c-0.965,0-1.753,0.781-1.753,1.752v53.435c0,0.968,0.788,1.752,1.753,1.752H8.421
				c0.968,0,1.753-0.784,1.753-1.752v-53.435c0-0.971-0.785-1.752-1.753-1.752H-45.014z"/>
		</g>
		<g>
			<path style="fill:#ED3B59;" d="M116.022,279.883H35.1c-3.119,0-5.646,2.527-5.646,5.643v80.922c0,3.119,2.527,5.646,5.646,5.646
				h80.923c3.119,0,5.645-2.527,5.645-5.646v-80.922C121.668,282.41,119.141,279.883,116.022,279.883z M106.006,352.863
				c0,2.06-1.668,3.728-3.728,3.728H48.843c-2.06,0-3.728-1.668-3.728-3.728v-53.435c0-2.057,1.668-3.728,3.728-3.728h53.435
				c2.06,0,3.728,1.671,3.728,3.728V352.863z"/>
			<path style="fill:#B02624;" d="M116.022,374.069H35.1c-4.205,0-7.621-3.42-7.621-7.621v-80.922c0-4.201,3.416-7.618,7.621-7.618
				h80.923c4.201,0,7.624,3.417,7.624,7.618v80.922C123.647,370.649,120.224,374.069,116.022,374.069z M35.1,281.859
				c-2.019,0-3.67,1.644-3.67,3.667v80.922c0,2.023,1.651,3.67,3.67,3.67h80.923c2.022,0,3.67-1.646,3.67-3.67v-80.922
				c0-2.023-1.647-3.667-3.67-3.667H35.1z M102.279,358.568H48.843c-3.146,0-5.703-2.558-5.703-5.704v-53.435
				c0-3.146,2.557-5.703,5.703-5.703h53.435c3.146,0,5.707,2.557,5.707,5.703v53.435
				C107.986,356.01,105.424,358.568,102.279,358.568z M48.843,297.677c-0.967,0-1.752,0.781-1.752,1.752v53.435
				c0,0.968,0.784,1.752,1.752,1.752h53.435c0.971,0,1.752-0.784,1.752-1.752v-53.435c0-0.971-0.781-1.752-1.752-1.752H48.843z"/>
		</g>
	</g>
	
		<g id="itm0nm50_00000153694055859023421620000016686699355319348154_" style="clip-path:url(#SVGID_00000167366757860706330530000010663314926703859598_);">
		<g>
			<path style="fill:#00B6D2;" d="M422.168-26.262h-80.93c-3.112,0-5.642,2.533-5.642,5.649v80.919c0,3.118,2.531,5.649,5.642,5.649
				h80.93c3.112,0,5.642-2.531,5.642-5.649v-80.919C427.81-23.729,425.28-26.262,422.168-26.262z M412.152,46.722
				c0,2.057-1.667,3.731-3.731,3.731h-53.435c-2.061,0-3.731-1.674-3.731-3.731V-6.714c0-2.059,1.671-3.727,3.731-3.727h53.435
				c2.064,0,3.731,1.668,3.731,3.727V46.722z"/>
			<path style="fill:#0095D9;" d="M422.168,67.93h-80.93c-4.198,0-7.614-3.42-7.614-7.624v-80.919c0-4.205,3.416-7.625,7.614-7.625
				h80.93c4.198,0,7.618,3.42,7.618,7.625v80.919C429.786,64.511,426.366,67.93,422.168,67.93z M341.238-24.283
				c-2.019,0-3.667,1.647-3.667,3.671v80.919c0,2.027,1.647,3.674,3.667,3.674h80.93c2.022,0,3.667-1.647,3.667-3.674v-80.919
				c0-2.023-1.644-3.671-3.667-3.671H341.238z M408.421,52.428h-53.435c-3.146,0-5.707-2.557-5.707-5.706V-6.714
				c0-3.145,2.561-5.703,5.707-5.703h53.435c3.146,0,5.707,2.558,5.707,5.703v53.436C414.128,49.871,411.567,52.428,408.421,52.428z
				 M354.986-8.466c-0.965,0-1.753,0.786-1.753,1.752v53.436c0,0.968,0.788,1.755,1.753,1.755h53.435
				c0.968,0,1.753-0.788,1.753-1.755V-6.714c0-0.966-0.785-1.752-1.753-1.752H354.986z"/>
		</g>
		<g>
			<path style="fill:#B563A6;" d="M516.022-26.262H435.1c-3.119,0-5.646,2.533-5.646,5.649v80.919c0,3.118,2.527,5.649,5.646,5.649
				h80.923c3.119,0,5.645-2.531,5.645-5.649v-80.919C521.668-23.729,519.141-26.262,516.022-26.262z M506.006,46.722
				c0,2.057-1.668,3.731-3.727,3.731h-53.435c-2.06,0-3.728-1.674-3.728-3.731V-6.714c0-2.059,1.667-3.727,3.728-3.727h53.435
				c2.06,0,3.727,1.668,3.727,3.727V46.722z"/>
			<path style="fill:#713894;" d="M516.022,67.93H435.1c-4.205,0-7.621-3.42-7.621-7.624v-80.919c0-4.205,3.416-7.625,7.621-7.625
				h80.923c4.201,0,7.624,3.42,7.624,7.625v80.919C523.647,64.511,520.224,67.93,516.022,67.93z M435.1-24.283
				c-2.019,0-3.67,1.647-3.67,3.671v80.919c0,2.027,1.651,3.674,3.67,3.674h80.923c2.022,0,3.67-1.647,3.67-3.674v-80.919
				c0-2.023-1.648-3.671-3.67-3.671H435.1z M502.279,52.428h-53.435c-3.146,0-5.704-2.557-5.704-5.706V-6.714
				c0-3.145,2.557-5.703,5.704-5.703h53.435c3.146,0,5.707,2.558,5.707,5.703v53.436C507.986,49.871,505.424,52.428,502.279,52.428z
				 M448.843-8.466c-0.968,0-1.752,0.786-1.752,1.752v53.436c0,0.968,0.784,1.755,1.752,1.755h53.435
				c0.971,0,1.752-0.788,1.752-1.755V-6.714c0-0.966-0.781-1.752-1.752-1.752H448.843z"/>
		</g>
		<g>
			<path style="fill:#00A35A;" d="M422.168-120.117h-80.93c-3.112,0-5.642,2.527-5.642,5.643v80.922
				c0,3.119,2.531,5.646,5.642,5.646h80.93c3.112,0,5.642-2.527,5.642-5.646v-80.922C427.81-117.59,425.28-120.117,422.168-120.117z
				 M412.152-47.137c0,2.06-1.667,3.728-3.731,3.728h-53.435c-2.061,0-3.731-1.668-3.731-3.728v-53.435
				c0-2.057,1.671-3.728,3.731-3.728h53.435c2.064,0,3.731,1.671,3.731,3.728V-47.137z"/>
			<path style="fill:#007648;" d="M422.168-25.931h-80.93c-4.198,0-7.614-3.42-7.614-7.621v-80.922c0-4.201,3.416-7.618,7.614-7.618
				h80.93c4.198,0,7.618,3.417,7.618,7.618v80.922C429.786-29.351,426.366-25.931,422.168-25.931z M341.238-118.14
				c-2.019,0-3.667,1.644-3.667,3.667v80.922c0,2.024,1.647,3.67,3.667,3.67h80.93c2.022,0,3.667-1.646,3.667-3.67v-80.922
				c0-2.022-1.644-3.667-3.667-3.667H341.238z M408.421-41.432h-53.435c-3.146,0-5.707-2.558-5.707-5.704v-53.435
				c0-3.146,2.561-5.703,5.707-5.703h53.435c3.146,0,5.707,2.557,5.707,5.703v53.435C414.128-43.99,411.567-41.432,408.421-41.432z
				 M354.986-102.323c-0.965,0-1.753,0.781-1.753,1.752v53.435c0,0.968,0.788,1.752,1.753,1.752h53.435
				c0.968,0,1.753-0.784,1.753-1.752v-53.435c0-0.971-0.785-1.752-1.753-1.752H354.986z"/>
		</g>
		<g>
			<path style="fill:#ED3B59;" d="M516.022-120.117H435.1c-3.119,0-5.646,2.527-5.646,5.643v80.922c0,3.119,2.527,5.646,5.646,5.646
				h80.923c3.119,0,5.645-2.527,5.645-5.646v-80.922C521.668-117.59,519.141-120.117,516.022-120.117z M506.006-47.137
				c0,2.06-1.668,3.728-3.727,3.728h-53.435c-2.06,0-3.728-1.668-3.728-3.728v-53.435c0-2.057,1.667-3.728,3.728-3.728h53.435
				c2.06,0,3.727,1.671,3.727,3.728V-47.137z"/>
			<path style="fill:#B02624;" d="M516.022-25.931H435.1c-4.205,0-7.621-3.42-7.621-7.621v-80.922c0-4.201,3.416-7.618,7.621-7.618
				h80.923c4.201,0,7.624,3.417,7.624,7.618v80.922C523.647-29.351,520.224-25.931,516.022-25.931z M435.1-118.14
				c-2.019,0-3.67,1.644-3.67,3.667v80.922c0,2.024,1.651,3.67,3.67,3.67h80.923c2.022,0,3.67-1.646,3.67-3.67v-80.922
				c0-2.022-1.648-3.667-3.67-3.667H435.1z M502.279-41.432h-53.435c-3.146,0-5.704-2.558-5.704-5.704v-53.435
				c0-3.146,2.557-5.703,5.704-5.703h53.435c3.146,0,5.707,2.557,5.707,5.703v53.435C507.986-43.99,505.424-41.432,502.279-41.432z
				 M448.843-102.323c-0.968,0-1.752,0.781-1.752,1.752v53.435c0,0.968,0.784,1.752,1.752,1.752h53.435
				c0.971,0,1.752-0.784,1.752-1.752v-53.435c0-0.971-0.781-1.752-1.752-1.752H448.843z"/>
		</g>
	</g>
	
		<g id="itm0nm50_00000121977022144062189500000002224708842945396355_" style="clip-path:url(#SVGID_00000167366757860706330530000010663314926703859598_);">
		<g>
			<path style="fill:#00B6D2;" d="M222.168,173.738h-80.93c-3.112,0-5.642,2.533-5.642,5.649v80.919c0,3.118,2.53,5.649,5.642,5.649
				h80.93c3.112,0,5.642-2.531,5.642-5.649v-80.919C227.81,176.271,225.28,173.738,222.168,173.738z M212.152,246.722
				c0,2.057-1.667,3.731-3.731,3.731h-53.435c-2.061,0-3.731-1.674-3.731-3.731v-53.436c0-2.059,1.671-3.727,3.731-3.727h53.435
				c2.064,0,3.731,1.668,3.731,3.727V246.722z"/>
			<path style="fill:#0095D9;" d="M222.168,267.931h-80.93c-4.198,0-7.614-3.42-7.614-7.624v-80.919
				c0-4.205,3.416-7.625,7.614-7.625h80.93c4.198,0,7.618,3.42,7.618,7.625v80.919C229.786,264.511,226.366,267.931,222.168,267.931
				z M141.238,175.717c-2.019,0-3.667,1.647-3.667,3.671v80.919c0,2.027,1.647,3.674,3.667,3.674h80.93
				c2.022,0,3.666-1.647,3.666-3.674v-80.919c0-2.023-1.644-3.671-3.666-3.671H141.238z M208.421,252.428h-53.435
				c-3.146,0-5.707-2.557-5.707-5.706v-53.436c0-3.145,2.561-5.703,5.707-5.703h53.435c3.146,0,5.707,2.558,5.707,5.703v53.436
				C214.128,249.871,211.567,252.428,208.421,252.428z M154.986,191.534c-0.965,0-1.753,0.785-1.753,1.752v53.436
				c0,0.967,0.788,1.755,1.753,1.755h53.435c0.968,0,1.753-0.788,1.753-1.755v-53.436c0-0.967-0.785-1.752-1.753-1.752H154.986z"/>
		</g>
		<g>
			<path style="fill:#B563A6;" d="M316.022,173.738H235.1c-3.119,0-5.646,2.533-5.646,5.649v80.919c0,3.118,2.527,5.649,5.646,5.649
				h80.923c3.119,0,5.645-2.531,5.645-5.649v-80.919C321.668,176.271,319.141,173.738,316.022,173.738z M306.006,246.722
				c0,2.057-1.668,3.731-3.727,3.731h-53.435c-2.06,0-3.727-1.674-3.727-3.731v-53.436c0-2.059,1.667-3.727,3.727-3.727h53.435
				c2.06,0,3.727,1.668,3.727,3.727V246.722z"/>
			<path style="fill:#713894;" d="M316.022,267.931H235.1c-4.205,0-7.621-3.42-7.621-7.624v-80.919c0-4.205,3.416-7.625,7.621-7.625
				h80.923c4.201,0,7.624,3.42,7.624,7.625v80.919C323.647,264.511,320.224,267.931,316.022,267.931z M235.1,175.717
				c-2.019,0-3.67,1.647-3.67,3.671v80.919c0,2.027,1.651,3.674,3.67,3.674h80.923c2.022,0,3.67-1.647,3.67-3.674v-80.919
				c0-2.023-1.647-3.671-3.67-3.671H235.1z M302.279,252.428h-53.435c-3.146,0-5.704-2.557-5.704-5.706v-53.436
				c0-3.145,2.557-5.703,5.704-5.703h53.435c3.146,0,5.707,2.558,5.707,5.703v53.436
				C307.986,249.871,305.424,252.428,302.279,252.428z M248.843,191.534c-0.967,0-1.752,0.785-1.752,1.752v53.436
				c0,0.967,0.784,1.755,1.752,1.755h53.435c0.971,0,1.752-0.788,1.752-1.755v-53.436c0-0.967-0.781-1.752-1.752-1.752H248.843z"/>
		</g>
		<g>
			<path style="fill:#00A35A;" d="M222.168,79.883h-80.93c-3.112,0-5.642,2.527-5.642,5.643v80.922c0,3.119,2.53,5.646,5.642,5.646
				h80.93c3.112,0,5.642-2.527,5.642-5.646V85.526C227.81,82.41,225.28,79.883,222.168,79.883z M212.152,152.863
				c0,2.06-1.667,3.728-3.731,3.728h-53.435c-2.061,0-3.731-1.668-3.731-3.728V99.429c0-2.057,1.671-3.728,3.731-3.728h53.435
				c2.064,0,3.731,1.671,3.731,3.728V152.863z"/>
			<path style="fill:#007648;" d="M222.168,174.069h-80.93c-4.198,0-7.614-3.42-7.614-7.621V85.526c0-4.201,3.416-7.618,7.614-7.618
				h80.93c4.198,0,7.618,3.416,7.618,7.618v80.922C229.786,170.649,226.366,174.069,222.168,174.069z M141.238,81.859
				c-2.019,0-3.667,1.644-3.667,3.667v80.922c0,2.023,1.647,3.67,3.667,3.67h80.93c2.022,0,3.666-1.646,3.666-3.67V85.526
				c0-2.022-1.644-3.667-3.666-3.667H141.238z M208.421,158.568h-53.435c-3.146,0-5.707-2.558-5.707-5.704V99.429
				c0-3.146,2.561-5.703,5.707-5.703h53.435c3.146,0,5.707,2.557,5.707,5.703v53.435
				C214.128,156.01,211.567,158.568,208.421,158.568z M154.986,97.677c-0.965,0-1.753,0.781-1.753,1.752v53.435
				c0,0.968,0.788,1.752,1.753,1.752h53.435c0.968,0,1.753-0.784,1.753-1.752V99.429c0-0.971-0.785-1.752-1.753-1.752H154.986z"/>
		</g>
		<g>
			<path style="fill:#ED3B59;" d="M316.022,79.883H235.1c-3.119,0-5.646,2.527-5.646,5.643v80.922c0,3.119,2.527,5.646,5.646,5.646
				h80.923c3.119,0,5.645-2.527,5.645-5.646V85.526C321.668,82.41,319.141,79.883,316.022,79.883z M306.006,152.863
				c0,2.06-1.668,3.728-3.727,3.728h-53.435c-2.06,0-3.727-1.668-3.727-3.728V99.429c0-2.057,1.667-3.728,3.727-3.728h53.435
				c2.06,0,3.727,1.671,3.727,3.728V152.863z"/>
			<path style="fill:#B02624;" d="M316.022,174.069H235.1c-4.205,0-7.621-3.42-7.621-7.621V85.526c0-4.201,3.416-7.618,7.621-7.618
				h80.923c4.201,0,7.624,3.416,7.624,7.618v80.922C323.647,170.649,320.224,174.069,316.022,174.069z M235.1,81.859
				c-2.019,0-3.67,1.644-3.67,3.667v80.922c0,2.023,1.651,3.67,3.67,3.67h80.923c2.022,0,3.67-1.646,3.67-3.67V85.526
				c0-2.022-1.647-3.667-3.67-3.667H235.1z M302.279,158.568h-53.435c-3.146,0-5.704-2.558-5.704-5.704V99.429
				c0-3.146,2.557-5.703,5.704-5.703h53.435c3.146,0,5.707,2.557,5.707,5.703v53.435
				C307.986,156.01,305.424,158.568,302.279,158.568z M248.843,97.677c-0.967,0-1.752,0.781-1.752,1.752v53.435
				c0,0.968,0.784,1.752,1.752,1.752h53.435c0.971,0,1.752-0.784,1.752-1.752V99.429c0-0.971-0.781-1.752-1.752-1.752H248.843z"/>
		</g>
	</g>
	
		<g id="itm0nm50_00000135649295340029707590000017538337267545982620_" style="clip-path:url(#SVGID_00000167366757860706330530000010663314926703859598_);">
		<g>
			<path style="fill:#00B6D2;" d="M22.168,173.738h-80.93c-3.112,0-5.642,2.533-5.642,5.649v80.919c0,3.118,2.531,5.649,5.642,5.649
				h80.93c3.112,0,5.642-2.531,5.642-5.649v-80.919C27.81,176.271,25.28,173.738,22.168,173.738z M12.152,246.722
				c0,2.057-1.667,3.731-3.731,3.731h-53.435c-2.061,0-3.731-1.674-3.731-3.731v-53.436c0-2.059,1.671-3.727,3.731-3.727H8.421
				c2.064,0,3.731,1.668,3.731,3.727V246.722z"/>
			<path style="fill:#0095D9;" d="M22.168,267.931h-80.93c-4.198,0-7.614-3.42-7.614-7.624v-80.919c0-4.205,3.416-7.625,7.614-7.625
				h80.93c4.198,0,7.618,3.42,7.618,7.625v80.919C29.786,264.511,26.366,267.931,22.168,267.931z M-58.762,175.717
				c-2.019,0-3.667,1.647-3.667,3.671v80.919c0,2.027,1.647,3.674,3.667,3.674h80.93c2.022,0,3.667-1.647,3.667-3.674v-80.919
				c0-2.023-1.644-3.671-3.667-3.671H-58.762z M8.421,252.428h-53.435c-3.146,0-5.707-2.557-5.707-5.706v-53.436
				c0-3.145,2.561-5.703,5.707-5.703H8.421c3.146,0,5.707,2.558,5.707,5.703v53.436C14.127,249.871,11.567,252.428,8.421,252.428z
				 M-45.014,191.534c-0.965,0-1.753,0.785-1.753,1.752v53.436c0,0.967,0.788,1.755,1.753,1.755H8.421
				c0.968,0,1.753-0.788,1.753-1.755v-53.436c0-0.967-0.785-1.752-1.753-1.752H-45.014z"/>
		</g>
		<g>
			<path style="fill:#B563A6;" d="M116.022,173.738H35.1c-3.119,0-5.646,2.533-5.646,5.649v80.919c0,3.118,2.527,5.649,5.646,5.649
				h80.923c3.119,0,5.645-2.531,5.645-5.649v-80.919C121.668,176.271,119.141,173.738,116.022,173.738z M106.006,246.722
				c0,2.057-1.668,3.731-3.728,3.731H48.843c-2.06,0-3.728-1.674-3.728-3.731v-53.436c0-2.059,1.668-3.727,3.728-3.727h53.435
				c2.06,0,3.728,1.668,3.728,3.727V246.722z"/>
			<path style="fill:#713894;" d="M116.022,267.931H35.1c-4.205,0-7.621-3.42-7.621-7.624v-80.919c0-4.205,3.416-7.625,7.621-7.625
				h80.923c4.201,0,7.624,3.42,7.624,7.625v80.919C123.647,264.511,120.224,267.931,116.022,267.931z M35.1,175.717
				c-2.019,0-3.67,1.647-3.67,3.671v80.919c0,2.027,1.651,3.674,3.67,3.674h80.923c2.022,0,3.67-1.647,3.67-3.674v-80.919
				c0-2.023-1.647-3.671-3.67-3.671H35.1z M102.279,252.428H48.843c-3.146,0-5.703-2.557-5.703-5.706v-53.436
				c0-3.145,2.557-5.703,5.703-5.703h53.435c3.146,0,5.707,2.558,5.707,5.703v53.436
				C107.986,249.871,105.424,252.428,102.279,252.428z M48.843,191.534c-0.967,0-1.752,0.785-1.752,1.752v53.436
				c0,0.967,0.784,1.755,1.752,1.755h53.435c0.971,0,1.752-0.788,1.752-1.755v-53.436c0-0.967-0.781-1.752-1.752-1.752H48.843z"/>
		</g>
		<g>
			<path style="fill:#00A35A;" d="M22.168,79.883h-80.93c-3.112,0-5.642,2.527-5.642,5.643v80.922c0,3.119,2.531,5.646,5.642,5.646
				h80.93c3.112,0,5.642-2.527,5.642-5.646V85.526C27.81,82.41,25.28,79.883,22.168,79.883z M12.152,152.863
				c0,2.06-1.667,3.728-3.731,3.728h-53.435c-2.061,0-3.731-1.668-3.731-3.728V99.429c0-2.057,1.671-3.728,3.731-3.728H8.421
				c2.064,0,3.731,1.671,3.731,3.728V152.863z"/>
			<path style="fill:#007648;" d="M22.168,174.069h-80.93c-4.198,0-7.614-3.42-7.614-7.621V85.526c0-4.201,3.416-7.618,7.614-7.618
				h80.93c4.198,0,7.618,3.416,7.618,7.618v80.922C29.786,170.649,26.366,174.069,22.168,174.069z M-58.762,81.859
				c-2.019,0-3.667,1.644-3.667,3.667v80.922c0,2.023,1.647,3.67,3.667,3.67h80.93c2.022,0,3.667-1.646,3.667-3.67V85.526
				c0-2.022-1.644-3.667-3.667-3.667H-58.762z M8.421,158.568h-53.435c-3.146,0-5.707-2.558-5.707-5.704V99.429
				c0-3.146,2.561-5.703,5.707-5.703H8.421c3.146,0,5.707,2.557,5.707,5.703v53.435C14.127,156.01,11.567,158.568,8.421,158.568z
				 M-45.014,97.677c-0.965,0-1.753,0.781-1.753,1.752v53.435c0,0.968,0.788,1.752,1.753,1.752H8.421
				c0.968,0,1.753-0.784,1.753-1.752V99.429c0-0.971-0.785-1.752-1.753-1.752H-45.014z"/>
		</g>
		<g>
			<path style="fill:#ED3B59;" d="M116.022,79.883H35.1c-3.119,0-5.646,2.527-5.646,5.643v80.922c0,3.119,2.527,5.646,5.646,5.646
				h80.923c3.119,0,5.645-2.527,5.645-5.646V85.526C121.668,82.41,119.141,79.883,116.022,79.883z M106.006,152.863
				c0,2.06-1.668,3.728-3.728,3.728H48.843c-2.06,0-3.728-1.668-3.728-3.728V99.429c0-2.057,1.668-3.728,3.728-3.728h53.435
				c2.06,0,3.728,1.671,3.728,3.728V152.863z"/>
			<path style="fill:#B02624;" d="M116.022,174.069H35.1c-4.205,0-7.621-3.42-7.621-7.621V85.526c0-4.201,3.416-7.618,7.621-7.618
				h80.923c4.201,0,7.624,3.416,7.624,7.618v80.922C123.647,170.649,120.224,174.069,116.022,174.069z M35.1,81.859
				c-2.019,0-3.67,1.644-3.67,3.667v80.922c0,2.023,1.651,3.67,3.67,3.67h80.923c2.022,0,3.67-1.646,3.67-3.67V85.526
				c0-2.022-1.647-3.667-3.67-3.667H35.1z M102.279,158.568H48.843c-3.146,0-5.703-2.558-5.703-5.704V99.429
				c0-3.146,2.557-5.703,5.703-5.703h53.435c3.146,0,5.707,2.557,5.707,5.703v53.435
				C107.986,156.01,105.424,158.568,102.279,158.568z M48.843,97.677c-0.967,0-1.752,0.781-1.752,1.752v53.435
				c0,0.968,0.784,1.752,1.752,1.752h53.435c0.971,0,1.752-0.784,1.752-1.752V99.429c0-0.971-0.781-1.752-1.752-1.752H48.843z"/>
		</g>
	</g>
	
		<g id="itm0nm50_00000038388704060158605930000008867581501667211923_" style="clip-path:url(#SVGID_00000167366757860706330530000010663314926703859598_);">
		<g>
			<path style="fill:#00B6D2;" d="M222.168-26.262h-80.93c-3.112,0-5.642,2.533-5.642,5.649v80.919c0,3.118,2.53,5.649,5.642,5.649
				h80.93c3.112,0,5.642-2.531,5.642-5.649v-80.919C227.81-23.729,225.28-26.262,222.168-26.262z M212.152,46.722
				c0,2.057-1.667,3.731-3.731,3.731h-53.435c-2.061,0-3.731-1.674-3.731-3.731V-6.714c0-2.059,1.671-3.727,3.731-3.727h53.435
				c2.064,0,3.731,1.668,3.731,3.727V46.722z"/>
			<path style="fill:#0095D9;" d="M222.168,67.93h-80.93c-4.198,0-7.614-3.42-7.614-7.624v-80.919c0-4.205,3.416-7.625,7.614-7.625
				h80.93c4.198,0,7.618,3.42,7.618,7.625v80.919C229.786,64.511,226.366,67.93,222.168,67.93z M141.238-24.283
				c-2.019,0-3.667,1.647-3.667,3.671v80.919c0,2.027,1.647,3.674,3.667,3.674h80.93c2.022,0,3.666-1.647,3.666-3.674v-80.919
				c0-2.023-1.644-3.671-3.666-3.671H141.238z M208.421,52.428h-53.435c-3.146,0-5.707-2.557-5.707-5.706V-6.714
				c0-3.145,2.561-5.703,5.707-5.703h53.435c3.146,0,5.707,2.558,5.707,5.703v53.436C214.128,49.871,211.567,52.428,208.421,52.428z
				 M154.986-8.466c-0.965,0-1.753,0.786-1.753,1.752v53.436c0,0.968,0.788,1.755,1.753,1.755h53.435
				c0.968,0,1.753-0.788,1.753-1.755V-6.714c0-0.966-0.785-1.752-1.753-1.752H154.986z"/>
		</g>
		<g>
			<path style="fill:#B563A6;" d="M316.022-26.262H235.1c-3.119,0-5.646,2.533-5.646,5.649v80.919c0,3.118,2.527,5.649,5.646,5.649
				h80.923c3.119,0,5.645-2.531,5.645-5.649v-80.919C321.668-23.729,319.141-26.262,316.022-26.262z M306.006,46.722
				c0,2.057-1.668,3.731-3.727,3.731h-53.435c-2.06,0-3.727-1.674-3.727-3.731V-6.714c0-2.059,1.667-3.727,3.727-3.727h53.435
				c2.06,0,3.727,1.668,3.727,3.727V46.722z"/>
			<path style="fill:#713894;" d="M316.022,67.93H235.1c-4.205,0-7.621-3.42-7.621-7.624v-80.919c0-4.205,3.416-7.625,7.621-7.625
				h80.923c4.201,0,7.624,3.42,7.624,7.625v80.919C323.647,64.511,320.224,67.93,316.022,67.93z M235.1-24.283
				c-2.019,0-3.67,1.647-3.67,3.671v80.919c0,2.027,1.651,3.674,3.67,3.674h80.923c2.022,0,3.67-1.647,3.67-3.674v-80.919
				c0-2.023-1.647-3.671-3.67-3.671H235.1z M302.279,52.428h-53.435c-3.146,0-5.704-2.557-5.704-5.706V-6.714
				c0-3.145,2.557-5.703,5.704-5.703h53.435c3.146,0,5.707,2.558,5.707,5.703v53.436C307.986,49.871,305.424,52.428,302.279,52.428z
				 M248.843-8.466c-0.967,0-1.752,0.786-1.752,1.752v53.436c0,0.968,0.784,1.755,1.752,1.755h53.435
				c0.971,0,1.752-0.788,1.752-1.755V-6.714c0-0.966-0.781-1.752-1.752-1.752H248.843z"/>
		</g>
		<g>
			<path style="fill:#00A35A;" d="M222.168-120.117h-80.93c-3.112,0-5.642,2.527-5.642,5.643v80.922c0,3.119,2.53,5.646,5.642,5.646
				h80.93c3.112,0,5.642-2.527,5.642-5.646v-80.922C227.81-117.59,225.28-120.117,222.168-120.117z M212.152-47.137
				c0,2.06-1.667,3.728-3.731,3.728h-53.435c-2.061,0-3.731-1.668-3.731-3.728v-53.435c0-2.057,1.671-3.728,3.731-3.728h53.435
				c2.064,0,3.731,1.671,3.731,3.728V-47.137z"/>
			<path style="fill:#007648;" d="M222.168-25.931h-80.93c-4.198,0-7.614-3.42-7.614-7.621v-80.922c0-4.201,3.416-7.618,7.614-7.618
				h80.93c4.198,0,7.618,3.417,7.618,7.618v80.922C229.786-29.351,226.366-25.931,222.168-25.931z M141.238-118.14
				c-2.019,0-3.667,1.644-3.667,3.667v80.922c0,2.024,1.647,3.67,3.667,3.67h80.93c2.022,0,3.666-1.646,3.666-3.67v-80.922
				c0-2.022-1.644-3.667-3.666-3.667H141.238z M208.421-41.432h-53.435c-3.146,0-5.707-2.558-5.707-5.704v-53.435
				c0-3.146,2.561-5.703,5.707-5.703h53.435c3.146,0,5.707,2.557,5.707,5.703v53.435C214.128-43.99,211.567-41.432,208.421-41.432z
				 M154.986-102.323c-0.965,0-1.753,0.781-1.753,1.752v53.435c0,0.968,0.788,1.752,1.753,1.752h53.435
				c0.968,0,1.753-0.784,1.753-1.752v-53.435c0-0.971-0.785-1.752-1.753-1.752H154.986z"/>
		</g>
		<g>
			<path style="fill:#ED3B59;" d="M316.022-120.117H235.1c-3.119,0-5.646,2.527-5.646,5.643v80.922c0,3.119,2.527,5.646,5.646,5.646
				h80.923c3.119,0,5.645-2.527,5.645-5.646v-80.922C321.668-117.59,319.141-120.117,316.022-120.117z M306.006-47.137
				c0,2.06-1.668,3.728-3.727,3.728h-53.435c-2.06,0-3.727-1.668-3.727-3.728v-53.435c0-2.057,1.667-3.728,3.727-3.728h53.435
				c2.06,0,3.727,1.671,3.727,3.728V-47.137z"/>
			<path style="fill:#B02624;" d="M316.022-25.931H235.1c-4.205,0-7.621-3.42-7.621-7.621v-80.922c0-4.201,3.416-7.618,7.621-7.618
				h80.923c4.201,0,7.624,3.417,7.624,7.618v80.922C323.647-29.351,320.224-25.931,316.022-25.931z M235.1-118.14
				c-2.019,0-3.67,1.644-3.67,3.667v80.922c0,2.024,1.651,3.67,3.67,3.67h80.923c2.022,0,3.67-1.646,3.67-3.67v-80.922
				c0-2.022-1.647-3.667-3.67-3.667H235.1z M302.279-41.432h-53.435c-3.146,0-5.704-2.558-5.704-5.704v-53.435
				c0-3.146,2.557-5.703,5.704-5.703h53.435c3.146,0,5.707,2.557,5.707,5.703v53.435C307.986-43.99,305.424-41.432,302.279-41.432z
				 M248.843-102.323c-0.967,0-1.752,0.781-1.752,1.752v53.435c0,0.968,0.784,1.752,1.752,1.752h53.435
				c0.971,0,1.752-0.784,1.752-1.752v-53.435c0-0.971-0.781-1.752-1.752-1.752H248.843z"/>
		</g>
	</g>
	
		<g id="itm0nm50_00000154411957142366988500000005636546890890415241_" style="clip-path:url(#SVGID_00000167366757860706330530000010663314926703859598_);">
		<g>
			<path style="fill:#00B6D2;" d="M22.168-26.262h-80.93c-3.112,0-5.642,2.533-5.642,5.649v80.919c0,3.118,2.531,5.649,5.642,5.649
				h80.93c3.112,0,5.642-2.531,5.642-5.649v-80.919C27.81-23.729,25.28-26.262,22.168-26.262z M12.152,46.722
				c0,2.057-1.667,3.731-3.731,3.731h-53.435c-2.061,0-3.731-1.674-3.731-3.731V-6.714c0-2.059,1.671-3.727,3.731-3.727H8.421
				c2.064,0,3.731,1.668,3.731,3.727V46.722z"/>
			<path style="fill:#0095D9;" d="M22.168,67.93h-80.93c-4.198,0-7.614-3.42-7.614-7.624v-80.919c0-4.205,3.416-7.625,7.614-7.625
				h80.93c4.198,0,7.618,3.42,7.618,7.625v80.919C29.786,64.511,26.366,67.93,22.168,67.93z M-58.762-24.283
				c-2.019,0-3.667,1.647-3.667,3.671v80.919c0,2.027,1.647,3.674,3.667,3.674h80.93c2.022,0,3.667-1.647,3.667-3.674v-80.919
				c0-2.023-1.644-3.671-3.667-3.671H-58.762z M8.421,52.428h-53.435c-3.146,0-5.707-2.557-5.707-5.706V-6.714
				c0-3.145,2.561-5.703,5.707-5.703H8.421c3.146,0,5.707,2.558,5.707,5.703v53.436C14.127,49.871,11.567,52.428,8.421,52.428z
				 M-45.014-8.466c-0.965,0-1.753,0.786-1.753,1.752v53.436c0,0.968,0.788,1.755,1.753,1.755H8.421
				c0.968,0,1.753-0.788,1.753-1.755V-6.714c0-0.966-0.785-1.752-1.753-1.752H-45.014z"/>
		</g>
		<g>
			<path style="fill:#B563A6;" d="M116.022-26.262H35.1c-3.119,0-5.646,2.533-5.646,5.649v80.919c0,3.118,2.527,5.649,5.646,5.649
				h80.923c3.119,0,5.645-2.531,5.645-5.649v-80.919C121.668-23.729,119.141-26.262,116.022-26.262z M106.006,46.722
				c0,2.057-1.668,3.731-3.728,3.731H48.843c-2.06,0-3.728-1.674-3.728-3.731V-6.714c0-2.059,1.668-3.727,3.728-3.727h53.435
				c2.06,0,3.728,1.668,3.728,3.727V46.722z"/>
			<path style="fill:#713894;" d="M116.022,67.93H35.1c-4.205,0-7.621-3.42-7.621-7.624v-80.919c0-4.205,3.416-7.625,7.621-7.625
				h80.923c4.201,0,7.624,3.42,7.624,7.625v80.919C123.647,64.511,120.224,67.93,116.022,67.93z M35.1-24.283
				c-2.019,0-3.67,1.647-3.67,3.671v80.919c0,2.027,1.651,3.674,3.67,3.674h80.923c2.022,0,3.67-1.647,3.67-3.674v-80.919
				c0-2.023-1.647-3.671-3.67-3.671H35.1z M102.279,52.428H48.843c-3.146,0-5.703-2.557-5.703-5.706V-6.714
				c0-3.145,2.557-5.703,5.703-5.703h53.435c3.146,0,5.707,2.558,5.707,5.703v53.436C107.986,49.871,105.424,52.428,102.279,52.428z
				 M48.843-8.466c-0.967,0-1.752,0.786-1.752,1.752v53.436c0,0.968,0.784,1.755,1.752,1.755h53.435
				c0.971,0,1.752-0.788,1.752-1.755V-6.714c0-0.966-0.781-1.752-1.752-1.752H48.843z"/>
		</g>
		<g>
			<path style="fill:#00A35A;" d="M22.168-120.117h-80.93c-3.112,0-5.642,2.527-5.642,5.643v80.922c0,3.119,2.531,5.646,5.642,5.646
				h80.93c3.112,0,5.642-2.527,5.642-5.646v-80.922C27.81-117.59,25.28-120.117,22.168-120.117z M12.152-47.137
				c0,2.06-1.667,3.728-3.731,3.728h-53.435c-2.061,0-3.731-1.668-3.731-3.728v-53.435c0-2.057,1.671-3.728,3.731-3.728H8.421
				c2.064,0,3.731,1.671,3.731,3.728V-47.137z"/>
			<path style="fill:#007648;" d="M22.168-25.931h-80.93c-4.198,0-7.614-3.42-7.614-7.621v-80.922c0-4.201,3.416-7.618,7.614-7.618
				h80.93c4.198,0,7.618,3.417,7.618,7.618v80.922C29.786-29.351,26.366-25.931,22.168-25.931z M-58.762-118.14
				c-2.019,0-3.667,1.644-3.667,3.667v80.922c0,2.024,1.647,3.67,3.667,3.67h80.93c2.022,0,3.667-1.646,3.667-3.67v-80.922
				c0-2.022-1.644-3.667-3.667-3.667H-58.762z M8.421-41.432h-53.435c-3.146,0-5.707-2.558-5.707-5.704v-53.435
				c0-3.146,2.561-5.703,5.707-5.703H8.421c3.146,0,5.707,2.557,5.707,5.703v53.435C14.127-43.99,11.567-41.432,8.421-41.432z
				 M-45.014-102.323c-0.965,0-1.753,0.781-1.753,1.752v53.435c0,0.968,0.788,1.752,1.753,1.752H8.421
				c0.968,0,1.753-0.784,1.753-1.752v-53.435c0-0.971-0.785-1.752-1.753-1.752H-45.014z"/>
		</g>
		<g>
			<path style="fill:#ED3B59;" d="M116.022-120.117H35.1c-3.119,0-5.646,2.527-5.646,5.643v80.922c0,3.119,2.527,5.646,5.646,5.646
				h80.923c3.119,0,5.645-2.527,5.645-5.646v-80.922C121.668-117.59,119.141-120.117,116.022-120.117z M106.006-47.137
				c0,2.06-1.668,3.728-3.728,3.728H48.843c-2.06,0-3.728-1.668-3.728-3.728v-53.435c0-2.057,1.668-3.728,3.728-3.728h53.435
				c2.06,0,3.728,1.671,3.728,3.728V-47.137z"/>
			<path style="fill:#B02624;" d="M116.022-25.931H35.1c-4.205,0-7.621-3.42-7.621-7.621v-80.922c0-4.201,3.416-7.618,7.621-7.618
				h80.923c4.201,0,7.624,3.417,7.624,7.618v80.922C123.647-29.351,120.224-25.931,116.022-25.931z M35.1-118.14
				c-2.019,0-3.67,1.644-3.67,3.667v80.922c0,2.024,1.651,3.67,3.67,3.67h80.923c2.022,0,3.67-1.646,3.67-3.67v-80.922
				c0-2.022-1.647-3.667-3.67-3.667H35.1z M102.279-41.432H48.843c-3.146,0-5.703-2.558-5.703-5.704v-53.435
				c0-3.146,2.557-5.703,5.703-5.703h53.435c3.146,0,5.707,2.557,5.707,5.703v53.435C107.986-43.99,105.424-41.432,102.279-41.432z
				 M48.843-102.323c-0.967,0-1.752,0.781-1.752,1.752v53.435c0,0.968,0.784,1.752,1.752,1.752h53.435
				c0.971,0,1.752-0.784,1.752-1.752v-53.435c0-0.971-0.781-1.752-1.752-1.752H48.843z"/>
		</g>
	</g>
</g>
</svg>
